<?xml version="1.0" encoding="UTF-8" standalone="no"?>
<!-- Created with Inkscape (http://www.inkscape.org/) -->

<svg
   xmlns:dc="http://purl.org/dc/elements/1.1/"
   xmlns:cc="http://creativecommons.org/ns#"
   xmlns:rdf="http://www.w3.org/1999/02/22-rdf-syntax-ns#"
   xmlns:svg="http://www.w3.org/2000/svg"
   xmlns="http://www.w3.org/2000/svg"
   xmlns:sodipodi="http://sodipodi.sourceforge.net/DTD/sodipodi-0.dtd"
   xmlns:inkscape="http://www.inkscape.org/namespaces/inkscape"
   width="36pt"
   height="36pt"
   viewBox="0 0 12.7 12.7"
   version="1.1"
   id="svg8"
   inkscape:version="0.92.2 (5c3e80d, 2017-08-06)"
   sodipodi:docname="pg-logo-36x36.svg">
  <defs
     id="defs2" />
  <sodipodi:namedview
     id="base"
     pagecolor="#ffffff"
     bordercolor="#666666"
     borderopacity="1.0"
     inkscape:pageopacity="0.0"
     inkscape:pageshadow="2"
     inkscape:zoom="2.8"
     inkscape:cx="433.25"
     inkscape:cy="258.6151"
     inkscape:document-units="mm"
     inkscape:current-layer="layer1"
     showgrid="false"
     units="pt"
     inkscape:window-width="3840"
     inkscape:window-height="2004"
     inkscape:window-x="-16"
     inkscape:window-y="-16"
     inkscape:window-maximized="1" />
  <metadata
     id="metadata5">
    <rdf:RDF>
      <cc:Work
         rdf:about="">
        <dc:format>image/svg+xml</dc:format>
        <dc:type
           rdf:resource="http://purl.org/dc/dcmitype/StillImage" />
        <dc:title></dc:title>
      </cc:Work>
    </rdf:RDF>
  </metadata>
  <g
     inkscape:label="圖層 1"
     inkscape:groupmode="layer"
     id="layer1"
     transform="translate(0,-284.3)">
    <g
       id="g833"
       transform="matrix(0.02617209,0,0,0.02617209,0.73172916,284.75374)"
       style="fill:none;stroke:#ffffff;stroke-width:12;stroke-linecap:round;stroke-linejoin:round">
      <path
         id="path815"
         d="m 323,324 c 3,-23 2,-27 20,-23 h 4 c 14,1 31,-2 42,-7 22,-10 35,-27 13,-23 -50,11 -53,-6 -53,-6 C 402,186 424,86 405,61 353,-6 262,26 261,27 h -1 l -34,-4 c -22,0 -40,6 -53,16 0,0 -161,-66 -154,84 2,32 46,242 99,178 19,-23 38,-42 38,-42 9,6 20,9 32,8 l 1,-1 v 9 c -14,15 -10,18 -37,23 -27,6 -11,16 -1,19 13,3 43,7 63,-20 l -1,3 c 5,4 5,30 6,49 0,19 2,37 5,47 4,10 9,37 45,29 29,-6 52,-15 54,-101"
         inkscape:connector-curvature="0"
         style="fill:#000000;stroke:#000000;stroke-width:37;stroke-linecap:butt;stroke-linejoin:miter" />
      <path
         id="path817"
         d="m 402,271 c -50,11 -53,-6 -53,-6 C 402,186 424,86 405,61 353,-6 262,26 261,27 h -1 l -34,-4 c -22,0 -40,6 -53,16 0,0 -161,-66 -154,84 2,32 46,242 99,178 19,-23 38,-42 38,-42 9,6 20,9 32,8 l 1,-1 v 9 c -14,15 -10,18 -37,23 -27,6 -11,16 -1,19 13,3 43,7 63,-20 l -1,3 c 5,4 9,27 8,49 0,21 -1,36 3,47 5,11 9,37 45,29 29,-6 45,-23 47,-50 1,-20 5,-17 5,-35 l 3,-8 c 3,-26 0,-35 19,-31 h 4 c 14,1 31,-2 42,-7 22,-10 35,-27 13,-23 z"
         inkscape:connector-curvature="0"
         style="fill:#336791;stroke:none" />
      <path
         id="path819"
         d="m 216,286 c -2,50 0,100 5,112 5,12 15,36 51,28 30,-6 41,-19 45,-46 4,-20 10,-76 11,-87 M 173,38 c 0,0 -161,-66 -154,84 2,32 46,242 99,179 l 36,-42 M 260,26 c -5,2 90,-35 144,35 20,24 -3,124 -56,203"
         inkscape:connector-curvature="0" />
      <path
         id="path821"
         d="m 348,264 c 0,0 4,17 54,7 22,-5 9,12 -14,23 -18,8 -59,10 -60,-1 -1,-31 22,-21 20,-29 -1,-7 -12,-14 -19,-30 -6,-15 -82,-127 22,-111 3,0 -27,-99 -125,-100 -97,-2 -94,120 -94,120"
         inkscape:connector-curvature="0"
         style="stroke-linejoin:bevel" />
      <path
         id="path823"
         d="m 189,274 c -14,16 -10,18 -37,24 -28,5 -11,15 -1,18 13,3 42,8 62,-20 6,-9 0,-22 -8,-26 -4,-1 -9,-3 -16,4 z"
         inkscape:connector-curvature="0" />
      <path
         id="path825"
         d="m 188,274 c -2,-9 3,-19 7,-32 7,-18 23,-37 10,-96 -9,-44 -73,-9 -73,-3 0,6 3,30 -1,58 -5,37 23,68 56,65"
         inkscape:connector-curvature="0" />
      <path
         id="path827"
         d="m 173,142 c -1,2 3,7 8,8 6,1 10,-4 10,-6 1,-2 -3,-4 -8,-5 -6,0 -10,1 -10,3 z"
         inkscape:connector-curvature="0"
         style="fill:#ffffff;stroke-width:4;stroke-linecap:butt;stroke-linejoin:miter" />
      <path
         id="path829"
         d="m 332,138 c 0,2 -4,7 -9,8 -5,0 -10,-4 -10,-6 0,-2 4,-4 9,-5 5,-1 10,1 10,3 z"
         inkscape:connector-curvature="0"
         style="fill:#ffffff;stroke-width:2;stroke-linecap:butt;stroke-linejoin:miter" />
      <path
         id="path831"
         d="m 351,123 c 1,16 -4,27 -4,44 -1,25 11,53 -8,82"
         inkscape:connector-curvature="0" />
    </g>
  </g>
</svg>
